<svg width="24" height="26" viewBox="0 0 24 26" fill="none" xmlns="http://www.w3.org/2000/svg">
<path fill-rule="evenodd" clip-rule="evenodd" d="M1.15455 24.1048C0.627338 23.5648 0.627337 22.6893 1.15455 22.1494L20.8828 1.94381C21.41 1.40385 22.2648 1.40385 22.792 1.94381C23.3192 2.48377 23.3192 3.35923 22.792 3.89919L3.06373 24.1048C2.53653 24.6447 1.68175 24.6447 1.15455 24.1048Z" fill="#E01D31"/>
<path d="M1.15454 1.94381C1.68174 1.40385 2.53652 1.40385 3.06372 1.94381L22.792 22.1494C23.3192 22.6894 23.3192 23.5648 22.792 24.1048C22.2648 24.6447 21.41 24.6447 20.8828 24.1048L1.15454 3.89919C0.627329 3.35923 0.627329 2.48378 1.15454 1.94381Z" fill="#E01D31"/>
</svg>
